# xmcd
#
# Track frame offsets:
#	150
#	19817
#	33247
#	52010
#	71067
#	87840
#	105435
#	125142
#	145195
#	157042
#	171155
#	183062
#	208992
#	224165
#	242160
#	257195
#
# Disc length: 3557 seconds
#
# Revision: 0
# Processed by: cddbd v1.5.2PL0 Copyright (c) Steve Scherf et al.
# Submitted via: EasyCDDAExtractor 15.2.0.1
#
DISCID=f30de310
DTITLE=Padre José Hilton - Vol. II - Jesus, a resposta que eu quero ter!
DYEAR=1900
DGENRE=Religiosa
TTITLE0=Jesus, a resposta que eu quero ter!
TTITLE1=A igreja da paz e do amor
TTITLE2=Cansado da vida
TTITLE3=Gratidão
TTITLE4=Tudo é necessário
TTITLE5=Caminho, verdade e vida
TTITLE6=Toma senhor
TTITLE7=Apocalipse-esperança
TTITLE8=Ele está aqui!
TTITLE9=Nome sobre todo nome
TTITLE10=Utopia do omatrimônio
TTITLE11=O sonho de Maria
TTITLE12=Oração da purificação
TTITLE13=No abandono da prisão
TTITLE14=Oração de um ex-eleitor (quando eu era eleitor)
TTITLE15=Embalo do Senhor
EXTD=
EXTT0=
EXTT1=
EXTT2=
EXTT3=
EXTT4=
EXTT5=
EXTT6=
EXTT7=
EXTT8=
EXTT9=
EXTT10=
EXTT11=
EXTT12=
EXTT13=
EXTT14=
EXTT15=
PLAYORDER=
